<?xml version="1.0" encoding="UTF-8"?>
<svg id="Layer_2" data-name="Layer 2" xmlns="http://www.w3.org/2000/svg" xmlns:xlink="http://www.w3.org/1999/xlink" viewBox="0 0 623.13 544.27">
  <defs>
    <style>
      .cls-1 {
        fill: #f9f2c9;
      }

      .cls-2 {
        fill: #eac43b;
      }

      .cls-3 {
        clip-path: url(#clippath);
      }

      .cls-4 {
        fill: none;
      }
    </style>
    <clipPath id="clippath">
      <rect class="cls-4" x="0" y="0" width="474.48" height="378.65"/>
    </clipPath>
  </defs>
  <g id="Layer_1-2" data-name="Layer 1">
    <g id="Group_2090" data-name="Group 2090">
      <circle id="Ellipse_41" data-name="Ellipse 41" class="cls-1" cx="404.14" cy="325.28" r="218.99"/>
      <g id="Group_1471" data-name="Group 1471">
        <g class="cls-3">
          <g id="Group_1471-2" data-name="Group 1471-2">
            <path id="Path_2216" data-name="Path 2216" class="cls-2" d="m462.59,153.38h-47.24v-47.24c-.04-6.55-5.34-11.85-11.89-11.89h-23.65c-6.52.06-11.77,5.37-11.77,11.89v47.24h-47.26c-6.52,0-11.81,5.29-11.81,11.81v23.62c0,6.52,5.29,11.81,11.81,11.81h47.26v47.24c0,6.5,5.26,11.78,11.77,11.81h23.62c6.39,0,11.64-5.04,11.89-11.42v-47.24h47.24c6.54,0,11.85-5.28,11.89-11.81v-23.62c.18-6.56-5-12.02-11.56-12.2,0,0,0,0,0,0h-.32m-296.58,35.59c52.18,0,94.49-42.3,94.49-94.49S218.16,0,165.98,0s-94.49,42.3-94.49,94.49h0c0,52.18,42.3,94.48,94.49,94.49m66.38,23.62h-12.36c-34.29,15.75-73.74,15.75-108.03,0h-12.42C44.58,212.58.01,257.13,0,312.1c0,0,0,.01,0,.02v30.95c-.04,19.61,15.82,35.54,35.43,35.59h260.94c19.65,0,35.58-15.93,35.59-35.59v-30.79c0-55.01-44.59-99.6-99.6-99.6v-.08Z"/>
          </g>
        </g>
      </g>
    </g>
  </g>
</svg>