<?xml version="1.0" encoding="UTF-8"?>
<svg id="Layer_2" data-name="Layer 2" xmlns="http://www.w3.org/2000/svg" xmlns:xlink="http://www.w3.org/1999/xlink" viewBox="0 0 598.86 561.85">
  <defs>
    <style>
      .cls-1 {
        fill: #eef4d6;
      }

      .cls-2 {
        fill: #afd469;
      }

      .cls-3 {
        clip-path: url(#clippath);
      }

      .cls-4 {
        fill: none;
      }
    </style>
    <clipPath id="clippath">
      <rect class="cls-4" width="412.05" height="412.05"/>
    </clipPath>
  </defs>
  <g id="Layer_1-2" data-name="Layer 1">
    <g id="Group_2091" data-name="Group 2091">
      <circle id="Ellipse_42" data-name="Ellipse 42" class="cls-1" cx="379.87" cy="342.86" r="218.99"/>
      <g id="Group_1472" data-name="Group 1472">
        <g class="cls-3">
          <g id="Group_1472-2" data-name="Group 1472-2">
            <path id="Path_2217" data-name="Path 2217" class="cls-2" d="m206.02,0C92.24,0,0,92.25,0,206.03c0,113.78,92.25,206.02,206.03,206.01,113.78,0,206.01-92.24,206.01-206.02C412.04,92.24,319.8,0,206.02,0Zm97.3,287.88c-23.79,24.82-56.83,38.64-91.22,38.15-70.41,0-120.01-52.54-120.01-120.88-1.19-64.58,50.17-117.91,114.75-119.14h4.64c31.82-1.1,62.75,10.55,85.95,32.35,3.03,3.35,3.46,8.32,1.04,12.14l-18.64,28.76c-3.06,4.64-9.29,5.93-13.94,2.87-.44-.29-.85-.61-1.24-.96-14.41-12.18-32.48-19.17-51.34-19.86-38.33,0-61.45,27.92-61.45,63.21,0,32.86,21.25,66.16,61.74,66.16,20.48-.78,39.91-9.26,54.41-23.74,3.74-4.04,10.05-4.28,14.09-.54.46.43.88.9,1.26,1.41l20.38,27.92c2.9,3.59,2.9,8.72,0,12.32l-.42-.18Z"/>
          </g>
        </g>
      </g>
    </g>
  </g>
</svg>