<svg xmlns="http://www.w3.org/2000/svg" xmlns:xlink="http://www.w3.org/1999/xlink" id="Layer_1" x="0px" y="0px" viewBox="0 0 250 250" style="enable-background:new 0 0 250 250;" xml:space="preserve"><style type="text/css">	.st0{fill:#E7E4F2;}	.st1{fill:#8486C1;}	.st2{clip-path:url(#SVGID_00000063630112736838596510000016773053369325621890_);}</style><g id="Layer_1-2">	<g id="cloud-storage">		<circle id="Ellipse_16" class="st0" cx="174.2" cy="147.9" r="73.3"></circle>		<g id="Group_1339">			<path id="Path_2127" class="st1" d="M63.3,79l16.1-9.8v-3.9l-5.5,3.1l-10.6-7.9L63.3,79L63.3,79z M51.9,68l-5.5-3.1v4.3l16.1,9.4    V59.8L51.9,68L51.9,68z M63.7,59l10.2,7.5L90,57.1l-9.8-7.9L63.7,59z M35.4,57.1l16.1,9.4l10.6-7.9l-16.9-9.8L35.4,57.1    L35.4,57.1z M51.5,28.8L35,39l10.6,8.7l16.5-10.2C62.1,37.4,51.5,28.8,51.5,28.8z M74.3,28.8l-10.6,8.7l16.5,10.2L90.8,39    C90.8,39,74.3,28.8,74.3,28.8z"></path>			<g id="Group_1340">				<g>					<defs>						<rect id="SVGID_1_" x="2.5" y="28.8" width="191.5" height="164.4"></rect>					</defs>					<clipPath id="SVGID_00000116237082641691538690000011347315224038888851_">						<use xlink:href="#SVGID_1_" style="overflow:visible;"></use>					</clipPath>					<g style="clip-path:url(#SVGID_00000116237082641691538690000011347315224038888851_);">						<g id="Group_1339-2">							<g>								<path id="Path_2128" class="st1" d="M15.8,100.2c-1.3,3.9-1.8,8.1-1.2,12.2v-1.2c-0.2-2.3,0.1-4.5,0.8-6.7         c0.7-3,2.2-5.7,4.3-7.9c1.9-2.5,4.5-4.4,7.5-5.5c1.6-1.5,3.7-2.4,5.9-2.4c1.2-0.2,2.4-0.2,3.5,0c2.6,0,5.2,0.7,7.5,2         c1.8,0.8,3.5,1.9,5.1,3.1c1.8,1.7,3.5,3.5,5.1,5.5c1.1,2,1.9,4.1,2.4,6.3c0,0.8,0.4,2,0.4,2.4v-0.4c0-2.4-0.4-4.8-1.2-7.1         c0-0.3,0.1-0.4,0.4-0.4c2.3-0.5,4.6,0.3,6.3,2c1.6,1.3,2.6,3.1,2.8,5.1c0.5,2.2-0.3,4.4-2,5.9c-0.4,0.8-1.2,1.2-1.6,1.6h0.4         c0.2,0,0.4-0.2,0.4-0.4l0,0c1-0.8,1.9-1.7,2.8-2.8c0.3-0.3,0.4-0.3,0.4,0c0.8,0.8,1.5,1.8,2,2.8c1,1.7,1.6,3.5,1.6,5.5         c0,2.2-0.9,4.3-2.4,5.9c-1.7,1.7-3.7,3.1-5.9,3.9c-0.7,0.1-1.3,0.2-2,0.4H18.9c-2.1,0.1-4.1-0.4-5.9-1.6         c-1.9-0.8-3.7-2-5.1-3.5c-2.6-2.1-4.4-5-5.1-8.3c-0.3-1.1-0.5-2.4-0.4-3.5c0-1.9,0.6-3.8,1.6-5.5c0.9-2,2.2-3.8,3.9-5.1         c1.7-1.6,3.7-2.8,5.9-3.5c0.8,0,1.2-0.4,2-0.4L15.8,100.2L15.8,100.2z M53.1,110.4c0-9.4-7.5-17-16.9-17.3         c-9.3-0.4-17.2,6.9-17.6,16.2c0,0.2,0,0.4,0,0.7c0,9.4,7.4,17.2,16.9,17.7c9.5,0.2,17.4-7.3,17.7-16.8         C53.1,110.7,53.1,110.6,53.1,110.4"></path>								<path id="Path_2129" class="st1" d="M35.8,95.1c8.6-0.1,15.6,6.7,15.7,15.3c0,0.1,0,0.3,0,0.4c0.2,8.4-6.4,15.4-14.8,15.7         c-0.3,0-0.6,0-0.9,0c-8.4,0.2-15.4-6.4-15.7-14.8c0-0.3,0-0.6,0-0.9c-0.2-8.4,6.4-15.4,14.8-15.7         C35.2,95.1,35.5,95.1,35.8,95.1 M28.7,111.2v6.7c-0.1,1,0.7,1.9,1.7,2c0.1,0,0.2,0,0.2,0h1.2c1,0.1,1.9-0.7,2-1.7         c0-0.1,0-0.2,0-0.3v-3.1c0-0.3,0.1-0.4,0.4-0.4h5.5c3.3-0.6,5.6-3.7,5.1-7.1c-0.7-2.8-3-4.8-5.9-5.1h-7.1         c-1.3-0.1-2.3,0.9-2.4,2.2c0,0.1,0,0.1,0,0.2C28.9,106.6,28.6,108.8,28.7,111.2"></path>								<path id="Path_2130" class="st1" d="M36.2,110h-2c-0.3,0-0.4-0.1-0.4-0.4v-3.1c0-0.3,0.1-0.4,0.4-0.4H39         c1.1-0.1,2.1,0.7,2.1,1.8c0.1,1.1-0.7,2.1-1.8,2.1c-0.1,0-0.2,0-0.3,0L36.2,110L36.2,110z"></path>								<path id="Path_2131" class="st1" d="M144.5,147.7h-15.3l13.7,26.3h15.3L144.5,147.7z"></path>								<path id="Path_2132" class="st1" d="M127.6,150.8l-13.7,23.9l7.1,14.1l14.1-24.3C135.1,164.6,127.6,150.8,127.6,150.8z"></path>								<path id="Path_2133" class="st1" d="M130.8,176.7l-6.3,12.2h28.2l7.5-12.2C160.2,176.7,130.8,176.7,130.8,176.7z"></path>								<path id="Path_2134" class="st1" d="M162.6,88.4c-1.1,0-2.1,0.1-3.1,0.4c-3.3,0.2-6.5,1.8-8.6,4.3c-1.2,0-1.6-0.4-2.4-0.4         c-6.8,0-12.5,5.1-13.4,11.8c-5.3,1-9.1,5.6-9,11c0.4,5.8,4.8,10.4,10.6,11c-0.4-1.1-0.5-2.4-0.4-3.5c0-3.2,1.1-6.2,3.1-8.6         c1.5-1.7,3.2-3.1,5.1-4.3c1.4-8,7.7-14.1,15.7-15.3h1.6c4.1-0.1,8.1,1.5,11,4.3h1.2c1.5-0.1,2.9,0,4.3,0.4         C175.6,93,169.5,88.7,162.6,88.4"></path>								<path id="Path_2135" class="st1" d="M185.4,114.3c-1-5.8-5.9-10.1-11.8-10.2H172c-2.6-2.6-6.1-4.1-9.8-4.3h-1.6         c-6.9,1-12,6.8-12.2,13.7c-4.4,1.2-7.5,5.2-7.5,9.8c0.1,5.4,4.4,9.7,9.8,9.8h33.4c5.4-0.1,9.7-4.4,9.8-9.8         C193.9,118.6,190.1,114.7,185.4,114.3"></path>								<path id="Path_2136" class="st1" d="M138.6,28.8c-14.1,0-25.5,11.4-25.5,25.5s11.4,25.5,25.5,25.5s25.5-11.4,25.5-25.5l0,0         C164.1,40.2,152.7,28.8,138.6,28.8L138.6,28.8 M145.1,61.9c0,0.4-0.4,0.8-0.8,0.8H127c-2.6,0-4.7-2.1-4.7-4.7V46.2         c0-0.4,0.4-0.8,0.8-0.8h17.3c2.6,0,4.7,2.1,4.7,4.7V61.9z M154.9,62.3c0,1.2-0.8,0.8-1.2,0.4l-7.1-5.5V51l7.1-5.1         c0.8-0.4,1.2-0.4,1.2,0.4V62.3z"></path>								<path id="Path_2137" class="st1" d="M87.2,111.2v3.5c-0.4,2.4-0.8,5.1-1.2,7.5c-0.7,2.4-1.7,4.8-2.8,7.1         c-0.4,0.4-0.4,1.2-0.8,1.6c-0.3,0.7-1.1,1.1-1.9,0.8c0,0-0.1,0-0.1-0.1c-0.8,0-1.2-0.8-1.6-1.2v-1.2c0.3-0.7,0.7-1.4,1.2-2         c1.3-2.6,2.2-5.4,2.8-8.3c0.4-1.2,0.4-2.8,0.8-3.9c0.2-1.8,0.2-3.7,0-5.5c-0.1-3.2-0.8-6.4-2-9.4c-0.8-2-1.7-4-2.8-5.9         c-0.3-0.3-0.4-0.8-0.4-1.2c0-0.8,0.8-1.2,1.6-1.6c0.8,0,1.6,0,2,0.8c0.2,0.2,0.4,0.5,0.4,0.8c1.7,3.5,3,7.2,3.9,11         c0.4,1.6,0.4,3.1,0.8,4.7L87.2,111.2L87.2,111.2z"></path>								<path id="Path_2138" class="st1" d="M95.8,111.2v3.5l-1.2,7.1c-0.3,1.5-0.8,3-1.6,4.3c0,0.3-0.1,0.5-0.4,0.8         c-0.4,0.9-1.5,1.2-2.4,0.8l0,0c-0.8-0.3-1.3-1.1-1.2-2V125c0.8-1.9,1.5-3.9,2-5.9c0.4-1.6,0.4-2.8,0.8-4.3         c0.2-1.7,0.2-3.4,0-5.1c0-1.7-0.3-3.4-0.8-5.1c-0.4-2.3-1.1-4.5-2-6.7c-0.4-0.9-0.1-1.9,0.8-2.4c0.9-0.4,1.9-0.1,2.4,0.8         c0.9,2,1.6,4.1,2,6.3c0.5,1.5,0.7,3.1,0.8,4.7C95.7,108.5,95.9,109.9,95.8,111.2"></path>								<path id="Path_2139" class="st1" d="M104.1,111.2v3.1c0,2.2-0.4,4.3-1.2,6.3c-0.4,1.2-1.2,1.6-1.6,1.6c-1.1,0-2-0.8-2-1.9         c0-0.1,0-0.3,0-0.4c0.4-1.2,0.4-2.8,0.8-3.9c-0.1-0.8,0.1-1.6,0.4-2.4V110c0.1-1.2-0.1-2.4-0.4-3.5         c-0.1-1.3-0.3-2.7-0.8-3.9c-0.3-0.7-0.1-1.6,0.7-1.9c0,0,0.1,0,0.1-0.1c1.2-0.4,2.4,0,2.4,1.2c0.4,1.2,0.4,2,0.8,3.1         c0,1.2,0.4,2.4,0.4,3.5C104.1,109.3,104.2,110.3,104.1,111.2"></path>								<path id="Path_2140" class="st1" d="M112,111.2c0.1,1.5-0.1,2.9-0.4,4.3c0,0.8-0.4,1.2-1.2,1.6s-1.2,0-2-0.4         c-0.4-0.4-0.8-1.2-0.4-1.6c0.3-1.8,0.5-3.6,0.4-5.5c0.1-0.7-0.1-1.4-0.4-2c0-0.8,0.4-1.6,1.2-2c0.9-0.4,1.9,0,2.4,0.8         c0.2,0.2,0.4,0.5,0.4,0.8L112,111.2L112,111.2z"></path>								<path id="Path_2141" class="st1" d="M117.9,113.1c-1,0.1-1.9-0.7-2-1.7c0-0.1,0-0.2,0-0.2c0-1.2,0.8-1.6,1.6-2         c1.1-0.1,2.1,0.5,2.4,1.6c0.3,1-0.2,2-1.1,2.3C118.4,113.2,118.1,113.2,117.9,113.1"></path>								<path id="Path_2142" class="st1" d="M51.9,169c-0.6-0.4-1.2-0.7-1.9-0.8c-1.2-0.2-2.4,0.1-3.3,0.7c-2.2,1.4-2.8,4.3-1.4,6.5         s4.3,2.8,6.5,1.4c1.4-0.9,2.2-2.4,2.2-4C53.9,171.4,53.2,169.9,51.9,169"></path>								<path id="Path_2143" class="st1" d="M64.6,168.4c-0.5-0.2-1-0.3-1.5-0.2c-0.2,0-0.3,0-0.5,0c-2,0.2-3.7,1.7-4.1,3.7         c-0.1,0.8-0.1,1.6,0.1,2.4c0.5,1.5,1.7,2.6,3.2,3.1c0.1,0,0.2,0,0.3,0.1c0.1,0,0.5,0,0.9,0c0.4,0.1,0.9,0,1.3-0.1         c2.5-0.7,4-3.2,3.3-5.7c-0.2-0.7-0.5-1.3-0.9-1.8C66.2,169.2,65.4,168.7,64.6,168.4"></path>								<path id="Path_2144" class="st1" d="M78.2,145.3h-33c-4.1,0-7.5,3.3-7.5,7.4l0,0v33c0,4.1,3.3,7.5,7.4,7.5l0,0h33         c4.1,0,7.5-3.3,7.5-7.4l0,0v-33C85.6,148.7,82.3,145.3,78.2,145.3L78.2,145.3 M68,179c-1.1,0.8-2.3,1.3-3.6,1.6         c-0.7,0.1-1.5,0.1-2.2,0c-0.6-0.1-1.1-0.2-1.6-0.4c-1.7-0.6-3.2-1.8-4.1-3.4c-0.2-0.3-0.2-0.3-0.3-0.2c-1.1,2-3,3.3-5.2,3.8         c-1.4,0.3-2.9,0.2-4.2-0.3c-2.1-0.7-3.8-2.3-4.7-4.4c-0.3-0.7-0.5-1.3-0.6-2.1c0-0.2,0-3.5,0-7.3c-0.2-2.4-0.1-4.8,0.2-7.2         c0.2-0.5,0.7-0.8,1.2-0.9c0.4-0.1,0.7,0,1.1,0.1c0.2,0.2,0.4,0.4,0.6,0.7c0.2,0.3,0.2,0.4,0.2,3.7c0,1.9,0,3.4,0,3.4         s0.2-0.1,0.4-0.2c2.1-1.3,4.7-1.6,7-0.8c1,0.4,1.9,1,2.7,1.7c0.5,0.5,0.9,1,1.3,1.6c0.2,0.2,0.3,0.4,0.3,0.4l0.4-0.6         c0.6-0.8,1.2-1.5,2-2.1c1.1-0.7,2.3-1.2,3.6-1.4c0.9-0.1,1.7-0.1,2.6,0.1c0.1,0,0.2,0.1,0.2,0.1c1.3,0.3,2.6,1,3.5,1.9         c1.2,1.1,1.9,2.6,2.3,4.1c0,0.2,0.1,0.5,0.1,0.6c0,0.7,0,1.3,0,2c-0.2,1.4-0.7,2.6-1.6,3.7C69,178,68.6,178.5,68,179          M83.1,180c-0.3,0.2-0.7,0.4-1.1,0.4c-0.8,0-1.2-0.2-1.9-1.1c-0.3-0.4-0.6-0.7-0.6-0.8c-0.2-0.3-0.5-0.7-0.8-1         c-0.4-0.5-0.8-0.9-0.8-1c-0.2-0.2-0.4-0.4-0.5-0.6c-0.2-0.2-0.3-0.4-0.5-0.6c-0.3,0.3-0.7,0.7-0.9,1.1         c-0.5,0.6-1.1,1.4-1.5,1.8c-0.3,0.4-0.7,0.9-0.8,1c-0.7,0.9-1.1,1.1-1.7,1.2c-0.8,0.1-1.5-0.4-1.7-1.1         c-0.1-0.4-0.1-0.9,0.2-1.3c0.2-0.2,1.6-2,2-2.4c0.1-0.2,0.3-0.4,0.4-0.6s0.5-0.6,0.8-1c0.3-0.4,0.7-0.8,0.8-0.9         c0.1-0.1,0.2-0.2,0.2-0.3c0.1-0.1,0-0.2-0.5-0.8c-0.3-0.4-1.3-1.5-2.1-2.6c-0.9-1.1-1.6-1.9-1.6-2c-0.2-0.3-0.3-0.6-0.3-0.9         c0-0.7,0.4-1.3,1.1-1.5c0.5-0.2,1.1-0.1,1.6,0.2c0.5,0.4,0.9,0.9,1.3,1.4c0.6,0.7,1.1,1.3,1.1,1.3c0,0,0.4,0.5,0.8,1         c0.4,0.5,0.8,0.9,0.8,0.9c0.7-0.6,1.3-1.3,1.9-2.1c1-1.2,1.9-2.3,2.1-2.4c0.7-0.6,1.8-0.6,2.5,0.1c0.3,0.4,0.4,0.8,0.3,1.3         c-0.5,1-1.2,2-2.1,2.8c-0.9,1.1-2.4,3-2.4,3c0.6,0.9,1.3,1.8,2.1,2.7c1.2,1.4,2.2,2.7,2.3,2.8         C83.8,178.8,83.6,179.6,83.1,180"></path>							</g>						</g>					</g>				</g>			</g>		</g>	</g></g></svg>