<?xml version="1.0" encoding="UTF-8"?>
<svg id="Layer_2" data-name="Layer 2" xmlns="http://www.w3.org/2000/svg" xmlns:xlink="http://www.w3.org/1999/xlink" viewBox="0 0 618.88 535.91">
  <defs>
    <style>
      .cls-1 {
        fill: #faefe9;
      }

      .cls-2 {
        clip-path: url(#clippath);
      }

      .cls-3 {
        fill: none;
      }

      .cls-4 {
        fill: #dc564d;
      }
    </style>
    <clipPath id="clippath">
      <rect class="cls-3" width="439.57" height="330.07"/>
    </clipPath>
  </defs>
  <g id="Layer_1-2" data-name="Layer 1">
    <g id="Group_2093" data-name="Group 2093">
      <circle id="Ellipse_15" data-name="Ellipse 15" class="cls-1" cx="399.89" cy="316.92" r="218.99"/>
      <g id="Group_1474" data-name="Group 1474">
        <g class="cls-2">
          <g id="Group_1474-2" data-name="Group 1474-2">
            <path id="Path_2219" data-name="Path 2219" class="cls-4" d="m398.52,0H41.18C18.44,0,0,18.44,0,41.18v247.69c0,22.74,18.44,41.18,41.18,41.18h357.34c22.74-.07,41.12-18.57,41.05-41.31v-.04s0-247.72,0-247.72c-.11-22.61-18.44-40.91-41.05-40.98m-5.18,288.65H46.31c-2.86,0-5.18-2.32-5.18-5.18V46.46c-.03-2.85,2.25-5.19,5.11-5.23h347.12c2.86,0,5.18,2.32,5.18,5.18v237.06c.04,2.82-2.2,5.13-5.02,5.18,0,0,0,0,0,0h-.15M109.95,75.57c-19.07-.04-34.55,15.38-34.59,34.45-.04,19.07,15.38,34.55,34.45,34.59,19.06.04,34.55-15.38,34.59-34.44v-.15c0-19.03-15.42-34.45-34.45-34.45h0m-27.46,171.86h274.55v-69.04l-75.08-75.05c-3.94-4.14-10.5-4.31-14.64-.37-.13.12-.25.24-.37.37l-102.07,102.82-33.92-33.92c-3.95-4.02-10.41-4.08-14.43-.13,0,0,0,0,0,0l-.13.13-33.92,33.92v41.27Z"/>
          </g>
        </g>
      </g>
    </g>
  </g>
</svg>