<?xml version="1.0" encoding="UTF-8"?>
<svg id="Layer_2" data-name="Layer 2" xmlns="http://www.w3.org/2000/svg" viewBox="0 0 498.7 479.85">
  <defs>
    <style>
      .cls-1 {
        fill: #d28bbc;
      }

      .cls-2 {
        fill: #faeff6;
      }
    </style>
  </defs>
  <g id="Layer_1-2" data-name="Layer 1">
    <circle id="Ellipse_15" data-name="Ellipse 15" class="cls-2" cx="279.71" cy="260.86" r="218.99"/>
    <path class="cls-1" d="m204.15,188.65h89V15.64c0-8.64-7-15.64-15.64-15.64-.02,0-.05,0-.07,0H15.71C7.07-.04.04,6.93,0,15.57c0,.02,0,.05,0,.07v262.01c0,8.64,7,15.64,15.64,15.64.02,0,.05,0,.07,0h173.01v-88.93c0-8.57,6.86-15.56,15.43-15.71Zm84.43,35.99l-64.15,64.08c-2.95,2.96-6.96,4.61-11.14,4.57h-3.88v-83.74h83.74v4.01c-.03,4.14-1.67,8.11-4.57,11.07Z"/>
  </g>
</svg>