<?xml version="1.0" encoding="UTF-8"?>
<svg id="Layer_2" data-name="Layer 2" xmlns="http://www.w3.org/2000/svg" viewBox="0 0 708.82 568.59">
  <defs>
    <style>
      .cls-1 {
        fill: #80c6ab;
        stroke: #80c6ab;
        stroke-miterlimit: 10;
      }

      .cls-2 {
        fill: #ebf6f4;
      }
    </style>
  </defs>
  <g id="Layer_1-2" data-name="Layer 1">
    <g id="Group_2095" data-name="Group 2095">
      <circle id="Ellipse_45" data-name="Ellipse 45" class="cls-2" cx="489.83" cy="349.6" r="218.99"/>
      <g id="Group_1477" data-name="Group 1477">
        <g>
          <path id="Path_2222" data-name="Path 2222" class="cls-1" d="m284.71,52.53v-30.76h-14.11c-7.97,0-10.94-3.92-11.92-10.94-.32-5.37,3.77-9.99,9.14-10.32.67-.04,1.34-.01,2,.09h51.71c5.24-.78,10.13,2.83,10.91,8.07.14.95.14,1.91,0,2.86,0,7.05-4.02,9.95-10.94,9.95h-14.07v30.76l11.92,3.03c44.41,6.52,84.22,30.91,110.19,67.51,24.84,33.79,32.8,72.52,28.85,114.21-4.01,31.54-17.13,61.22-37.74,85.43-24.36,30.54-59.61,50.45-98.34,55.56-46.7,8.27-94.62-5.27-130.09-36.75-7.97-7.05-14.11-14.88-21.87-21.87l-1.84-1.34c-5.99-7.9-5.99-12.91,0-16.86,4.98-3.74,12.06-2.74,15.8,2.25h0c.4.54.76,1.11,1.06,1.7,19.95,25.49,48.12,43.28,79.72,50.32,67.67,15.23,136.46-20.53,162.88-84.65,7.1-15.5,10.82-32.33,10.94-49.38.58-34.18-10.63-67.51-31.75-94.39-18.75-22.69-44.09-38.98-72.52-46.61-47.72-10.94-90.37-3.03-128.13,28.76-8.13,7.11-15.77,14.75-22.88,22.88-3.18,4.48-9.38,5.55-13.87,2.37-2.14-1.51-3.59-3.81-4.05-6.39-1.56-3.91-.32-8.39,3.03-10.94,7.82-9.64,16.43-18.6,25.75-26.8,23.1-19.58,51.4-32.02,81.45-35.79,2.87-.86,5.79-1.52,8.75-1.97Z"/>
          <path id="Path_2223" data-name="Path 2223" class="cls-1" d="m97.97,227.34H11.56c-7.05-.99-10.94-3.92-10.94-9.95-.83-5.15,2.67-9.99,7.82-10.82.38-.06.76-.1,1.15-.11,3.24-.91,6.59-1.34,9.95-1.27h156.89c3.35-.16,6.7.17,9.95.99,7.05,2.05,9.95,7.05,8.96,11.92-.55,5.49-5.44,9.5-10.94,8.96h-86.43v.28Z"/>
          <path id="Path_2224" data-name="Path 2224" class="cls-1" d="m297.61,220.42c12.91-10.94,25.82-21.87,37.74-31.82l21.16-17.85c1.73-1.66,3.74-3.02,5.92-4.02,4.25-3.17,10.26-2.29,13.43,1.96.24.34.46.69.65,1.06,3.65,3.89,3.45,10.01-.44,13.66,0,0,0,0-.01.01-.16.16-.34.31-.52.45-5.92,5.92-11.92,10.94-17.85,15.87-15.94,14.11-31.82,28.76-49.38,41.69-8.96,7.97-14.11,7.97-21.87-.99-10.94-10.94-21.16-23.85-31.82-35.76-4.65-4.08-5.11-11.17-1.03-15.82h.01s.03-.05.03-.05c4.36-4.23,11.33-4.12,15.56.24,0,0,0,0,0,0,.51.53.97,1.11,1.37,1.73,3.69,4.56,7.67,8.87,11.92,12.91,4.18,4.79,9.12,10.71,15.11,16.72Z"/>
          <path id="Path_2225" data-name="Path 2225" class="cls-1" d="m124,277h-59.82c-6.04-.68-10.38-6.12-9.71-12.16.57-5.1,4.6-9.13,9.71-9.71h112.23c3.39.17,6.74.83,9.95,1.96,5.37,2.67,7.57,9.19,4.9,14.56-1.22,2.46-3.32,4.36-5.89,5.33-3.2,1.13-6.56,1.79-9.95,1.96-17.09-1.63-34.26-2.28-51.43-1.95Z"/>
          <path id="Path_2226" data-name="Path 2226" class="cls-1" d="m141.71,155.8h33.72c3.4.21,6.75.9,9.95,2.05,4.01,1.54,6.48,5.6,5.99,9.88.44,4.11-2.06,7.97-5.99,9.24-3.2,1.13-6.56,1.79-9.95,1.96h-69.46c-2.7.22-5.41-.11-7.97-.99-5.92-1.96-9.95-7.05-8.96-10.94,1.04-5.6,5.36-10.03,10.94-11.22h41.74Z"/>
        </g>
      </g>
    </g>
  </g>
</svg>